<?xml version="1.0" encoding="utf-8"?>
<!-- Generator: Adobe Illustrator 16.0.0, SVG Export Plug-In . SVG Version: 6.00 Build 0)  -->
<!DOCTYPE svg PUBLIC "-//W3C//DTD SVG 1.1//EN" "http://www.w3.org/Graphics/SVG/1.1/DTD/svg11.dtd">
<svg version="1.1" id="Layer_1" xmlns="http://www.w3.org/2000/svg" xmlns:xlink="http://www.w3.org/1999/xlink" x="0px" y="0px"
	 width="1944px" height="620px" viewBox="0 0 1944 620" enable-background="new 0 0 1944 620" xml:space="preserve">
<polygon fill="#E81A49" points="1572.612,337.898 1572.612,323 1519.454,323 1519.454,337.898 1503,337.898 1503,504.029 
	1608.052,504.029 1608.052,337.898 "/>
<rect x="1593" y="398.003" fill="#FBAE41" width="112" height="124.031"/>
<rect x="1754.073" y="401.548" fill="#7A55A3" width="115.495" height="122.526"/>
<rect x="1298.096" y="401.548" fill="#B5D443" width="83.996" height="99.028"/>
<polygon fill="#7F1337" points="1199.682,366.431 1199.682,349 1148.273,349 1148.273,366.431 1143,366.431 1143,502 1230,502 
	1230,366.431 "/>
<path fill="#E8B021" d="M1125.606,179.561v-46.498h-10.351c0.227-4.393,0.19-9.515-0.148-15.498
	c-0.978-17.28-11.664-31.963-26.999-37.067V70.066h-22.499v9.931c-16.57,4.575-28.954,19.66-28.499,37.567
	c0.151,5.937,0.451,11.061,0.885,15.498h-8.385v46.498h-10.5v332.517h113.995V179.561H1125.606z"/>
<rect x="884.118" y="332.553" fill="#EE4B9B" width="139.493" height="167.525"/>
<rect x="1074.61" y="249.065" fill="#00B3D3" width="91.495" height="253.021"/>
<rect x="1392" y="124" fill="#015530" width="141" height="392.031"/>
<rect x="1371" y="184" fill="#D07EB5" width="163" height="321.031"/>
<rect x="1389.995" y="247" fill="#CBC22D" width="50" height="258.031"/>
<rect x="1481.997" y="247" fill="#CBC22D" width="50" height="247.031"/>
<rect x="524" y="342" fill="#263C82" width="58" height="75"/>
<path fill="#252165" d="M754,307.003V299h-6.963L742,291l-1.237,0.112c0.153-0.909,0.383-2.463,0.537-4.426
	c0.135-1.594,0.238-3.453,0.242-5.445c-0.019-1.992-0.175-4.117-0.242-6.242c-0.156-4.25-0.282-8.5-0.444-11.688
	c-0.153-3.188-0.256-5.312-0.256-5.312h-0.2c0,0-0.103,2.125-0.256,5.312c-0.162,3.188-0.288,7.438-0.444,11.688
	c-0.067,2.125-0.223,4.25-0.242,6.242c0.004,1.992,0.107,3.852,0.242,5.445c0.157,1.993,0.392,3.57,0.545,4.473L736.5,291.5
	l-5.714,7.5H724v8.003h-66v77h151v-77H754z"/>
<g>
	<polygon fill-rule="evenodd" clip-rule="evenodd" fill="#49BA77" points="429,334 429,294 440,294 440,267 451,267 451,239 
		478.5,211.5 498,211.5 523,249 523,265 533,269 533,293 533,501.031 430,501.031 	"/>
	<polygon fill="#0C8949" points="533,293 545,298 545,498.031 533,498.031 	"/>
</g>
<rect x="926" y="234" fill="#305EAC" width="79" height="270"/>
<rect x="1702" y="376" fill="#70C9C2" width="57" height="145.53"/>
<polygon fill="#438E87" points="1694.002,382.355 1705.003,376 1705.003,521.53 1694.002,521.53 "/>
<polygon fill="#263C82" points="1005,234 1013,247.043 1013,500.087 1005,500.087 "/>
<polygon fill="#F16031" points="572,220 572,502.031 670,502.031 670,216 649,208.002 649,202 639,197 639,185 625,185 625,197 
	615,202 615,208.002 "/>
<polygon fill="#BA4326" points="670,216 684,224 684,501.031 670,501.031 "/>
<polygon fill="#F16031" points="789,220 789,502.031 887,502.031 887,216 866,208.002 866,202 856,197 856,185 842,185 842,197 
	832,202 832,208.002 "/>
<polygon fill="#BA4326" points="887,216 901,224 901,501.031 887,501.031 "/>
<rect x="611" y="324" fill="#4879BD" width="133" height="179.031"/>
<rect x="753" y="327" fill="#4879BD" width="105" height="176.031"/>
<polygon fill="#2E5A8E" points="744,324 753,327 753,503.031 744,503.031 "/>
<polygon fill="#2E5A8E" points="858,327 874,332 874,503.031 858,503.031 "/>
<rect x="1245" y="47" fill="#6D52A2" width="81" height="460.031"/>
<rect x="1397" y="368" fill="#633393" width="144" height="143.031"/>
<polygon fill="#321F5B" points="1486,505.031 1451,505.031 1451,368 1470,346.983 1486,368 "/>
<path fill="#149547" d="M1599,518.356V384.032c0,0-19-2.449-32,11.021c-13,13.471-16,92.689-16,100.037c0,7.347,0,26.94,0,26.94
	L1599,518.356z"/>
<path fill-rule="evenodd" clip-rule="evenodd" fill="#9A2620" d="M109,338h308c0,0,28,3,43,11s15,16,24,14s13-3,13-3l3,4
	c0,0-4,3-8,4s-3,9-3,9v144.031H104c0,0-34-41.031-36-106.031S109,338,109,338z"/>
<polygon fill="#74287C" points="478,509.032 478,442 520,442 520,400 573,400 595,413 595,509.032 "/>
<rect x="1220" y="310" fill="#6ABD45" width="117" height="192.031"/>
<polygon fill="#D28F29" points="1222.004,410.896 1203.004,410.896 1203.004,396 1132.004,396 1132.004,506.031 1203.004,506.031 
	1203.004,453.289 1222.004,453.289 "/>
<rect x="1013.113" y="260.557" fill="#6F2B8C" width="88.496" height="239.521"/>
<path fill="#144877" d="M2033.481,503.153c-1.519-0.972-4.367-1.753-8.161-2.392v-4.013h-2.899v3.574
	c-9.006-1.219-21.919-1.841-35.181-2.303c-17.396-0.607-36.293-0.89-59.47-0.89c-13.297,0-26.381,0.094-37.427,0.186
	c-32.73,0.273-67.276,0.889-105.611,1.884c-22.777,0.591-48.593,1.261-72.631,2.489c-3.027,0.154-6.067,0.299-9.117,0.437
	c-11.669,0.443-25.488,0.948-39.506,1.335v0.001c-14.67,0.332-29.808,0.501-44.994,0.501c-26.602,0-53.707-0.512-80.563-1.521
	c-15.411-0.578-30.928-1.291-45.934-1.98c-16.507-0.757-33.576-1.541-50.603-2.151c-31.082-1.115-62.103-1.907-92.199-2.353
	c-13.704-0.203-27.995-0.307-42.478-0.307c-50.823,0-100.614,1.244-146.85,2.589c-46.434,1.35-95.973,2.668-146.221,2.668
	c-17.138,0-33.229-0.148-49.194-0.455c-50.782-0.971-101.995-2.503-151.521-3.985c-70.557-2.111-143.516-4.295-216.441-4.89
	c-11.683-0.096-23.335-0.145-34.635-0.145c-51.55,0-100.13,1.012-144.392,3.006c-7.168,0.322-14.472,0.685-21.534,1.035
	c-20.388,1.012-41.469,2.057-62.742,2.337c-2.441,0.032-4.947,0.049-7.451,0.049c-23.624,0-46.35-1.442-68.328-2.837
	c-3-0.19-5.994-0.38-8.981-0.566c-15.672-0.975-34.373-2.034-54.243-2.499c-6.174-0.145-12.618-0.215-19.699-0.215
	c-14.877,0-29.929,0.317-44.485,0.625l-2.233,0.047c-3.019,0.063-6.036,0.129-9.052,0.194c-15.83,0.345-32.199,0.7-48.454,0.716
	l-0.785,0.001c-21.337,0-43.317-0.854-65.333-2.539c-0.383-0.028-0.722-0.021-1.016,0.012v-0.071
	c-0.966,0.028-1.933,0.061-2.899,0.087v254.467H2025.32V502.615c2.425,0.469,4.081,0.979,4.945,1.533
	c0.243,0.154,0.715,0.34,1.584,0.34c0.883,0,1.532-0.178,1.828-0.5l0.381-0.467L2033.481,503.153z"/>
</svg>
